<?xml version="1.0" encoding="utf-8"?>
<svg viewBox="23.224 111.109 153.124 89.235" xmlns="http://www.w3.org/2000/svg">
  <g id="layer1">
    <g aria-label="masaż" transform="matrix(4.7595678,0,0,4.7595678,-174.79242,-140.90116)" id="text833-9-0" style="font-weight:bold;font-size:9.87778px;line-height:1.25;font-family:Arial;-inkscape-font-specification:'Arial Bold';white-space:pre;shape-inside:url(#rect835-0-8)">
      <path d="m 48.409569,55.26932 c -0.800101,0 -1.491545,0.325967 -1.91629,0.869245 -0.375355,-0.582789 -1.007533,-0.869245 -1.748367,-0.869245 -0.681567,0 -1.274233,0.237067 -1.669345,0.691445 v -0.612423 h -1.471789 v 5.314246 h 1.540934 v -2.667001 c 0,-0.948267 0.484011,-1.392767 1.165578,-1.392767 0.642056,0 1.007534,0.395112 1.007534,1.254478 v 2.80529 h 1.540933 v -2.667001 c 0,-0.948267 0.484011,-1.392767 1.175456,-1.392767 0.6223,0 1.007534,0.395112 1.007534,1.254478 v 2.80529 h 1.540933 v -3.042356 c 0,-1.619956 -0.908755,-2.350912 -2.173111,-2.350912 z" style="font-style:normal;font-variant:normal;font-weight:bold;font-stretch:normal;font-size:9.87778px;font-family:Montserrat;-inkscape-font-specification:'Montserrat Bold';fill:#fcc5c0;fill-opacity:1" id="path1712"/>
      <path d="m 54.109045,55.26932 c -0.849489,0 -1.708856,0.227189 -2.291645,0.642056 l 0.553156,1.076678 c 0.385233,-0.306211 0.968022,-0.493889 1.531056,-0.493889 0.829733,0 1.224845,0.385233 1.224845,1.047044 h -1.224845 c -1.619956,0 -2.281767,0.651934 -2.281767,1.590323 0,0.918634 0.740833,1.610078 1.985434,1.610078 0.780344,0 1.3335,-0.256822 1.619955,-0.740833 v 0.661811 h 1.442156 v -3.032479 c 0,-1.610078 -0.938389,-2.360789 -2.558345,-2.360789 z m -0.118533,4.435123 c -0.543278,0 -0.869245,-0.256822 -0.869245,-0.642055 0,-0.355601 0.227189,-0.622301 0.948267,-0.622301 h 1.056923 v 0.543278 c -0.1778,0.484012 -0.622301,0.721078 -1.135945,0.721078 z" style="font-style:normal;font-variant:normal;font-weight:bold;font-stretch:normal;font-size:9.87778px;font-family:Montserrat;-inkscape-font-specification:'Montserrat Bold';fill:#fcc5c0;fill-opacity:1" id="path1714"/>
      <path d="m 59.848022,60.74161 c 1.590323,0 2.508956,-0.701322 2.508956,-1.6891 0,-2.09409 -3.210278,-1.214967 -3.210278,-2.123723 0,-0.276578 0.296333,-0.493889 0.987778,-0.493889 0.484011,0 1.007533,0.09878 1.531056,0.395111 l 0.513644,-1.096433 c -0.503767,-0.296334 -1.313745,-0.464256 -2.0447,-0.464256 -1.550812,0 -2.459568,0.7112 -2.459568,1.718734 0,2.123722 3.210279,1.234722 3.210279,2.103967 0,0.296333 -0.2667,0.484011 -0.9779,0.484011 -0.651934,0 -1.373012,-0.207433 -1.847145,-0.513644 l -0.513645,1.106311 c 0.493889,0.325967 1.402645,0.572911 2.301523,0.572911 z" style="font-style:normal;font-variant:normal;font-weight:bold;font-stretch:normal;font-size:9.87778px;font-family:Montserrat;-inkscape-font-specification:'Montserrat Bold';fill:#fcc5c0;fill-opacity:1" id="path1716"/>
      <path d="m 65.448707,55.26932 c -0.849489,0 -1.708856,0.227189 -2.291645,0.642056 l 0.553156,1.076678 c 0.385233,-0.306211 0.968022,-0.493889 1.531056,-0.493889 0.829733,0 1.224844,0.385233 1.224844,1.047044 h -1.224844 c -1.619956,0 -2.281768,0.651934 -2.281768,1.590323 0,0.918634 0.740834,1.610078 1.985434,1.610078 0.780345,0 1.3335,-0.256822 1.619956,-0.740833 v 0.661811 h 1.442156 v -3.032479 c 0,-1.610078 -0.938389,-2.360789 -2.558345,-2.360789 z m -0.118533,4.435123 c -0.543278,0 -0.869245,-0.256822 -0.869245,-0.642055 0,-0.355601 0.227189,-0.622301 0.948267,-0.622301 h 1.056922 v 0.543278 c -0.1778,0.484012 -0.6223,0.721078 -1.135944,0.721078 z" style="font-style:normal;font-variant:normal;font-weight:bold;font-stretch:normal;font-size:9.87778px;font-family:Montserrat;-inkscape-font-specification:'Montserrat Bold';fill:#fcc5c0;fill-opacity:1" id="path1718"/>
      <path d="m 71.404996,54.617387 c 0.484011,0 0.829733,-0.3556 0.829733,-0.839612 0,-0.474133 -0.345722,-0.829733 -0.829733,-0.829733 -0.484011,0 -0.829734,0.3556 -0.829734,0.829733 0,0.484012 0.345723,0.839612 0.829734,0.839612 z m -0.424745,4.859867 2.706512,-3.2004 v -0.928512 h -4.58329 v 1.185334 h 2.637367 l -2.706511,3.200401 v 0.928511 h 4.741334 v -1.185334 z" style="font-style:normal;font-variant:normal;font-weight:bold;font-stretch:normal;font-size:9.87778px;font-family:Montserrat;-inkscape-font-specification:'Montserrat Bold';fill:#fcc5c0;fill-opacity:1" id="path1720"/>
    </g>
    <g aria-label="expert" transform="matrix(4.7595678,0,0,4.7595678,-171.62817,-170.51883)" id="text845-1-0" style="font-style:normal;font-variant:normal;font-weight:normal;font-stretch:normal;font-size:10.5833px;line-height:1.25;font-family:Arial;-inkscape-font-specification:Arial;letter-spacing:0.523875px;white-space:pre;shape-inside:url(#rect847-0-2)">
      <path d="m 45.347072,74.048829 0.961179,0.118855 q -0.227376,0.842323 -0.842323,1.30741 -0.614948,0.465086 -1.570959,0.465086 -1.204057,0 -1.912022,-0.738971 -0.702797,-0.744138 -0.702797,-2.082553 0,-1.384924 0.713133,-2.149733 0.713132,-0.764809 1.85001,-0.764809 1.100705,0 1.798334,0.749306 0.69763,0.749306 0.69763,2.108392 0,0.08268 -0.0052,0.248046 h -4.09276 q 0.05168,0.904335 0.511595,1.384924 0.459919,0.480589 1.147213,0.480589 0.511595,0 0.873329,-0.268716 0.361734,-0.268717 0.573606,-0.857826 z m -3.054067,-1.50378 h 3.064403 q -0.06201,-0.692462 -0.351399,-1.038693 -0.444416,-0.537433 -1.152381,-0.537433 -0.640785,0 -1.080034,0.428913 -0.43408,0.428913 -0.480589,1.147213 z" style="font-style:normal;font-variant:normal;font-weight:normal;font-stretch:normal;font-family:Arial;-inkscape-font-specification:Arial" id="path1723"/>
      <path d="m 47.379894,75.816157 2.005039,-2.85253 -1.855178,-2.63549 h 1.162716 l 0.842323,1.28674 q 0.237711,0.366901 0.382405,0.614947 0.227375,-0.341063 0.418578,-0.604612 l 0.925005,-1.297075 h 1.111039 l -1.896519,2.583814 2.041213,2.904206 H 51.37447 l -1.126543,-1.705317 -0.299722,-0.459919 -1.441768,2.165236 z" style="font-style:normal;font-variant:normal;font-weight:normal;font-stretch:normal;font-family:Arial;-inkscape-font-specification:Arial" id="path1725"/>
      <path d="m 53.815534,77.919381 v -7.591244 h 0.847491 v 0.713133 q 0.299722,-0.418578 0.676959,-0.625283 0.377237,-0.211873 0.91467,-0.211873 0.702797,0 1.240231,0.361734 0.537433,0.361734 0.811317,1.02319 0.273884,0.656289 0.273884,1.441768 0,0.842323 -0.30489,1.519283 -0.299722,0.671791 -0.878496,1.033525 -0.573607,0.356566 -1.209225,0.356566 -0.465086,0 -0.837156,-0.19637 -0.366901,-0.19637 -0.604612,-0.496092 v 2.671663 z m 0.842323,-4.816228 q 0,1.059364 0.428913,1.565791 0.428913,0.506427 1.038693,0.506427 0.620116,0 1.059364,-0.52193 0.444416,-0.527098 0.444416,-1.627802 0,-1.049029 -0.434081,-1.570959 -0.428913,-0.52193 -1.028358,-0.52193 -0.594277,0 -1.054195,0.558103 -0.454752,0.552937 -0.454752,1.6123 z" style="font-style:normal;font-variant:normal;font-weight:normal;font-stretch:normal;font-family:Arial;-inkscape-font-specification:Arial" id="path1727"/>
      <path d="m 63.9822,74.048829 0.961179,0.118855 q -0.227376,0.842323 -0.842323,1.30741 -0.614948,0.465086 -1.570959,0.465086 -1.204057,0 -1.912022,-0.738971 -0.702797,-0.744138 -0.702797,-2.082553 0,-1.384924 0.713133,-2.149733 0.713132,-0.764809 1.85001,-0.764809 1.100705,0 1.798334,0.749306 0.69763,0.749306 0.69763,2.108392 0,0.08268 -0.0052,0.248046 h -4.09276 q 0.05168,0.904335 0.511595,1.384924 0.459919,0.480589 1.147213,0.480589 0.511595,0 0.873329,-0.268716 0.361734,-0.268717 0.573606,-0.857826 z m -3.054067,-1.50378 h 3.064403 q -0.06201,-0.692462 -0.351399,-1.038693 -0.444416,-0.537433 -1.152381,-0.537433 -0.640785,0 -1.080034,0.428913 -0.43408,0.428913 -0.480589,1.147213 z" style="font-style:normal;font-variant:normal;font-weight:normal;font-stretch:normal;font-family:Arial;-inkscape-font-specification:Arial" id="path1729"/>
      <path d="m 66.624802,75.816157 v -5.48802 h 0.837156 v 0.831988 q 0.320392,-0.583941 0.589109,-0.769976 0.273884,-0.186035 0.599445,-0.186035 0.470254,0 0.956011,0.299723 L 69.28613,71.36683 q -0.341064,-0.201537 -0.682127,-0.201537 -0.30489,0 -0.547768,0.186035 -0.242879,0.180866 -0.346231,0.506427 -0.155029,0.496092 -0.155029,1.085202 v 2.8732 z" style="font-style:normal;font-variant:normal;font-weight:normal;font-stretch:normal;font-family:Arial;-inkscape-font-specification:Arial" id="path1731"/>
      <path d="m 72.714211,74.984169 0.134359,0.821653 q -0.39274,0.08268 -0.702798,0.08268 -0.506427,0 -0.785479,-0.160197 -0.279052,-0.160196 -0.392739,-0.418577 -0.113688,-0.263549 -0.113688,-1.100705 v -3.15742 h -0.682127 v -0.723468 h 0.682127 v -1.359085 l 0.925005,-0.558104 v 1.917189 h 0.93534 v 0.723468 h -0.93534 v 3.209096 q 0,0.397908 0.04651,0.511595 0.05168,0.113688 0.160196,0.180867 0.113688,0.06718 0.320393,0.06718 0.155029,0 0.408242,-0.03617 z" style="font-style:normal;font-variant:normal;font-weight:normal;font-stretch:normal;font-family:Arial;-inkscape-font-specification:Arial" id="path1733"/>
    </g>
  </g>
</svg>